<svg xmlns="http://www.w3.org/2000/svg" viewBox="0 0 333.724 333.724">
  <path d="M330.938 214.28l-52.918-39.906v-16.026c0-2.197-1.03-4.266-2.785-5.59L171.077 74.215c-2.496-1.882-5.934-1.882-8.43 0L58.49 152.76c-1.755 1.322-2.786 3.39-2.786 5.588v16.026L2.786 214.28C1.032 215.6 0 217.67 0 219.867v70.722c0 3.866 3.135 7 7 7H326.724c3.866 0 7-3.134 7-7v-70.722c0-2.197-1.03-4.266-2.785-5.59zM174.43 283.59h-15.138v-35.287h15.14v35.286zm14 0v-42.287c0-3.866-3.133-7-7-7h-29.138c-3.866 0-7 3.134-7 7v42.286H69.704V161.835l97.158-73.267 97.158 73.266V283.59H188.43zM14 223.355l41.704-31.448v91.68H14v-60.232zm305.723 60.233H278.02v-91.682l41.703 31.448v60.233z"/>
  <path d="M11.215 169.273l155.647-117.37 155.646 117.37c1.263.953 2.742 1.413 4.21 1.413 2.12 0 4.218-.96 5.594-2.786 2.328-3.086 1.713-7.476-1.374-9.803l-159.86-120.55c-2.497-1.883-5.935-1.883-8.43 0L2.785 158.096c-3.087 2.327-3.702 6.716-1.374 9.802 2.327 3.086 6.718 3.7 9.803 1.373z"/>
</svg>
