<svg xmlns="http://www.w3.org/2000/svg" viewBox="0 0 279.131 279.131">
  <path d="M276.346 109.82l-93.71-70.665c-2.496-1.882-5.934-1.882-8.43 0L158.8 50.772l-15.404-11.617c-2.496-1.882-5.934-1.882-8.43 0l-15.02 11.327-15.022-11.327c-2.496-1.882-5.934-1.882-8.43 0L2.784 109.82C1.03 111.145 0 113.215 0 115.41v118.977c0 3.866 3.134 7 7 7H272.13c3.867 0 7-3.134 7-7V115.41c0-2.196-1.03-4.266-2.784-5.59zM265.13 227.388h-25.237V115.41c0-2.197-1.03-4.266-2.785-5.59l-66.68-50.28 7.993-6.03 86.71 65.39v108.487zm-63.71 0V115.41c0-2.197-1.03-4.266-2.784-5.59l-67.064-50.57 7.61-5.738 86.71 65.388v108.488h-24.47zm-89.246 0H89.246v-50.76h22.928v50.76zm14 0v-57.76c0-3.867-3.134-7-7-7H82.246c-3.866 0-7 3.133-7 7v57.76H14v-108.49l86.71-65.387 86.71 65.388v108.488h-61.246z"/>
</svg>
