<svg xmlns="http://www.w3.org/2000/svg" viewBox="0 0 463.001 463.001">
  <path d="M441.045 308.903c-3.285-8.994-10.277-15.956-19.184-19.102-8.9-3.144-18.636-2.162-26.705 2.69l-78.17 46.903-10.75 4.607H249.83c-.69 0-1.077-.386-1.278-.71-.202-.324-.38-.84-.073-1.46.173-.354.473-.622.844-.754l42.802-15.295c16.563-5.565 26.054-22.51 21.614-38.614-2.33-8.452-7.86-15.368-15.573-19.475-7.593-4.043-16.624-4.797-24.766-2.07l-44.165 14.72-115.97 7.732c-7.614.508-14.778 3.76-20.173 9.154L30.008 360.31c-12.102 12.1-13.223 31.297-2.553 43.7 2.82 3.28 14.975 14.926 33.195 32.322 10.618 10.137 20.646 19.71 25.407 24.472 1.458 1.458 3.378 2.197 5.306 2.197 1.698 0 3.403-.574 4.8-1.737l34.65-28.875c7.263-6.054 16.47-9.387 25.926-9.387H275.36c4.294 0 8.473-.856 12.42-2.548l55.987-23.995c.155-.067.31-.14.46-.216l2.84-1.452c.152-.077.3-.16.445-.247l79.285-47.57c13.38-8.028 19.37-24.037 14.245-38.067zm-21.962 25.204l-79.067 47.44-2.39 1.222-55.753 23.894c-2.07.887-4.26 1.336-6.512 1.336H156.74c-12.958 0-25.576 4.568-35.53 12.864l-29.436 24.53c-5.38-5.224-12.912-12.415-20.765-19.912-13.203-12.604-29.633-28.29-32.184-31.255-5.488-6.38-4.686-16.837 1.79-23.312l63.083-63.084c2.823-2.824 6.575-4.526 10.562-4.792l116.93-7.797c.638-.04 1.267-.165 1.872-.367l45.088-15.027c1.724-.577 3.49-.863 5.247-.863 2.655 0 5.288.654 7.715 1.946 4.04 2.15 6.94 5.78 8.163 10.222 2.288 8.298-3.086 17.46-11.98 20.425l-.15.053-42.872 15.32c-4.063 1.452-7.35 4.384-9.256 8.256-2.534 5.152-2.236 11.137.798 16.01S244.09 359 249.83 359h57.944c1.016 0 2.02-.206 2.954-.606l12.635-5.414c.312-.133.614-.288.904-.462l78.612-47.168c4.223-2.542 9.318-3.052 13.985-1.405 4.737 1.674 8.32 5.262 10.09 10.105 2.62 7.17-.765 15.793-7.872 20.057zM291.642 239c65.893 0 119.5-53.607 119.5-119.5S357.535 0 291.642 0s-119.5 53.607-119.5 119.5S225.75 239 291.642 239zm0-224c57.62 0 104.5 46.878 104.5 104.5S349.262 224 291.642 224s-104.5-46.878-104.5-104.5S234.022 15 291.642 15z"/>
  <path d="M251.142 147.5c0-4.142-3.357-7.5-7.5-7.5s-7.5 3.358-7.5 7.5c0 14.5 12.944 26.706 32 32.27v3.73c0 4.142 3.357 7.5 7.5 7.5s7.5-3.358 7.5-7.5v-.897c2.766.26 5.603.397 8.5.397s5.734-.136 8.5-.397v.897c0 4.142 3.357 7.5 7.5 7.5s7.5-3.358 7.5-7.5v-3.73c19.056-5.564 32-17.768 32-32.27s-12.944-26.706-32-32.27V75.008c10.58 4.023 17 10.47 17 16.493 0 4.142 3.357 7.5 7.5 7.5s7.5-3.358 7.5-7.5c0-14.5-12.944-26.706-32-32.27V55.5c0-4.142-3.357-7.5-7.5-7.5s-7.5 3.358-7.5 7.5v.897c-2.766-.26-5.603-.397-8.5-.397s-5.734.136-8.5.397V55.5c0-4.142-3.357-7.5-7.5-7.5s-7.5 3.358-7.5 7.5v3.73c-19.056 5.564-32 17.768-32 32.27s12.944 26.706 32 32.27v40.223c-10.58-4.023-17-10.47-17-16.493zm64-16.493c10.58 4.023 17 10.47 17 16.493s-6.42 12.47-17 16.493v-32.986zm-32-59.533c2.71-.308 5.55-.474 8.5-.474s5.79.166 8.5.474v40.923c-2.766-.26-5.603-.397-8.5-.397-2.95 0-5.79-.166-8.5-.474V71.474zm0 55.13c2.766.26 5.603.396 8.5.396 2.95 0 5.79.166 8.5.474v40.052c-2.71.308-5.55.474-8.5.474s-5.79-.166-8.5-.474v-40.923zm-32-35.104c0-6.022 6.42-12.47 17-16.493v32.985c-10.58-4.022-17-10.47-17-16.492z"/>
</svg>
