<svg xmlns="http://www.w3.org/2000/svg" viewBox="0 0 463 463">
  <path d="M274.997 247.787l.968-15.482c12.64 4.443 25.888 6.695 39.535 6.695 65.893 0 119.5-53.607 119.5-119.5S381.393 0 315.5 0c-63.373 0-115.373 49.59-119.258 112H159.11c-17.716 0-34.152 7.11-46.28 20.02s-18.202 29.76-17.097 47.44l4.27 68.326c.08 29.568 12.534 56.017 31.997 73.49v11.952l-13.183 19.774-61.71 16.83C39.97 374.51 28 390.18 28 407.943V439.5c0 12.958 10.542 23.5 23.5 23.5h272c12.958 0 23.5-10.542 23.5-23.5v-31.56c0-17.763-11.97-33.433-29.106-38.106l-61.71-16.83L243 333.228v-11.954c19.463-17.473 31.916-43.92 31.997-73.49zm-66.193 138.41l-10.193-10.193 35.28-29.4 8.597 12.897-23.813 35.722c-.04.06-.13.196-.367.22-.24.023-.353-.095-.403-.145l-9.1-9.1zm-42.61.003l-9.097 9.097c-.05.05-.168.165-.403.144-.235-.022-.327-.16-.367-.22l-23.813-35.72 8.597-12.896 35.28 29.4-10.19 10.19-.006.006zm21.306-20.463l-39.93-33.276c11.978 6.735 25.554 10.54 39.93 10.54s27.952-3.805 39.93-10.538l-39.93 33.275zm0 57.263c.63 0 1.25-.032 1.866-.08L194.51 448h-14.02l5.145-25.08c.616.048 1.236.08 1.865.08zm8.5-23.5c0 4.687-3.813 8.5-8.5 8.5s-8.5-3.813-8.5-8.5v-4.893l8.5-8.5 8.5 8.5v4.893zM315.5 15C373.122 15 420 61.88 420 119.5S373.122 224 315.5 224c-13.382 0-26.32-2.475-38.557-7.348l2.325-37.192c.098-1.562.12-3.115.105-4.662 3.87 1.987 8.117 3.648 12.627 4.948v3.752c0 4.143 3.358 7.5 7.5 7.5s7.5-3.357 7.5-7.5v-.912c2.792.27 5.63.412 8.5.412 2.897 0 5.734-.136 8.5-.397v.898c0 4.143 3.358 7.5 7.5 7.5s7.5-3.357 7.5-7.5v-3.73c19.056-5.564 32-17.77 32-32.27s-12.944-26.706-32-32.27V75.01c10.58 4.022 17 10.47 17 16.492 0 4.143 3.358 7.5 7.5 7.5s7.5-3.357 7.5-7.5c0-14.5-12.944-26.706-32-32.27V55.5c0-4.143-3.358-7.5-7.5-7.5s-7.5 3.357-7.5 7.5v.897c-2.766-.26-5.603-.397-8.5-.397s-5.734.136-8.5.397V55.5c0-4.143-3.358-7.5-7.5-7.5s-7.5 3.357-7.5 7.5v3.73C272.944 64.795 260 77 260 91.5s12.944 26.706 32 32.27v40.245c-7.81-2.896-13.57-7.014-16.745-11.157-2.908-7.614-7.298-14.677-13.084-20.836C250.043 119.11 233.606 112 215.89 112h-4.618c3.858-54.134 49.13-97 104.228-97zM307 71.474c2.71-.308 5.55-.474 8.5-.474s5.79.166 8.5.474v40.923c-2.766-.26-5.603-.397-8.5-.397-2.95 0-5.79-.166-8.5-.474V71.474zm-15 36.52c-10.58-4.024-17-10.47-17-16.494s6.42-12.47 17-16.493v32.986zM315.5 127c2.95 0 5.79.166 8.5.474v40.052c-2.71.308-5.55.474-8.5.474-2.96 0-5.787-.185-8.5-.494v-40.903c2.766.26 5.603.397 8.5.397zm23.5 4.007c10.58 4.023 17 10.47 17 16.493s-6.42 12.47-17 16.493v-32.986zm-215.24 11.285c9.265-9.86 21.82-15.292 35.35-15.292h56.78c13.53 0 26.084 5.43 35.348 15.292 9.264 9.86 13.9 22.73 13.058 36.233l-1.41 22.573c-6.35-12.898-12.926-21.505-13.456-22.19-2.057-2.656-5.63-3.623-8.747-2.36C203.013 191.81 132.21 192 131.5 192c-1.68 0-3.313.564-4.634 1.603-.523.41-7.453 5.977-14.19 16.482l-1.972-31.56c-.844-13.504 3.793-26.372 13.057-36.233zm-8.752 105.545c2.253-22.35 14.74-36.36 19.386-40.86 13.493-.17 69.594-1.655 106.31-14.42 6.17 9.3 19.296 31.81 19.296 54.942 0 44.387-32.523 80.5-72.5 80.5-39.875 0-72.327-35.93-72.492-80.163zM43 439.5v-31.56c0-11.017 7.424-20.736 18.054-23.636l59.204-16.147 23.59 35.383c2.585 3.88 6.73 6.367 11.37 6.827.515.05 1.03.076 1.542.076 3.136 0 6.166-.953 8.73-2.713 1.306 3.477 3.41 6.564 6.093 9.038L165.177 448H99v-24.5c0-4.143-3.358-7.5-7.5-7.5s-7.5 3.357-7.5 7.5V448H51.5c-4.687 0-8.5-3.813-8.5-8.5zm289-31.56v31.56c0 4.687-3.813 8.5-8.5 8.5H291v-24.5c0-4.143-3.358-7.5-7.5-7.5s-7.5 3.357-7.5 7.5V448h-66.177l-6.406-31.23c2.682-2.474 4.787-5.56 6.092-9.038 2.564 1.76 5.594 2.713 8.73 2.713.512 0 1.028-.025 1.543-.076 4.64-.46 8.784-2.95 11.37-6.828l23.59-35.383 59.204 16.146C324.577 387.204 332 396.924 332 407.94z"/>
</svg>
