<?xml version='1.0' encoding='iso-8859-1'?>
<svg version="1.1" xmlns="http://www.w3.org/2000/svg" viewBox="0 0 463 463" xmlns:xlink="http://www.w3.org/1999/xlink" enable-background="new 0 0 463 463">
  <g>
    <path d="m274.997,247.787l.968-15.482c12.641,4.443 25.888,6.695 39.535,6.695 65.893,0 119.5-53.607 119.5-119.5s-53.607-119.5-119.5-119.5c-63.373,0-115.373,49.589-119.258,112h-37.133c-17.715,0-34.151,7.11-46.28,20.021s-18.201,29.759-17.096,47.439l4.27,68.326c0.08,29.568 12.534,56.017 31.997,73.489v11.953l-13.183,19.774-61.71,16.831c-17.138,4.675-29.107,20.345-29.107,38.108v31.559c0,12.958 10.542,23.5 23.5,23.5h272c12.958,0 23.5-10.542 23.5-23.5v-31.559c0-17.764-11.969-33.434-29.106-38.107l-61.711-16.831-13.183-19.774v-11.953c19.463-17.473 31.916-43.921 31.997-73.489zm-66.193,138.41c-0.001,0-0.001-0.001 0,0l-10.193-10.193 35.279-29.399 8.597,12.896-23.813,35.721c-0.04,0.059-0.131,0.196-0.367,0.22-0.239,0.023-0.353-0.095-0.403-0.145l-9.1-9.1zm-42.61,.003l-9.097,9.097c-0.05,0.05-0.168,0.165-0.403,0.144-0.235-0.023-0.327-0.161-0.367-0.22l-23.813-35.721 8.597-12.896 35.279,29.399-10.19,10.19c-0.002,0.003-0.004,0.005-0.006,0.007zm21.306-20.463l-39.931-33.276c11.979,6.734 25.555,10.539 39.931,10.539s27.952-3.805 39.931-10.538l-39.931,33.275zm0,57.263c0.629,0 1.249-0.032 1.866-0.081l5.144,25.081h-14.02l5.145-25.081c0.616,0.049 1.236,0.081 1.865,0.081zm8.5-23.5c0,4.687-3.813,8.5-8.5,8.5s-8.5-3.813-8.5-8.5v-4.893l8.5-8.5 8.5,8.5v4.893zm119.5-384.5c57.622,0 104.5,46.879 104.5,104.5s-46.878,104.5-104.5,104.5c-13.382,0-26.32-2.475-38.557-7.348l2.325-37.192c0.098-1.562 0.119-3.115 0.105-4.662 3.87,1.987 8.117,3.648 12.627,4.948v3.752c0,4.143 3.358,7.5 7.5,7.5s7.5-3.357 7.5-7.5v-0.912c2.792,0.271 5.631,0.412 8.5,0.412 2.897,0 5.734-0.136 8.5-0.397v0.897c0,4.143 3.358,7.5 7.5,7.5s7.5-3.357 7.5-7.5v-3.731c19.056-5.563 32-17.768 32-32.269s-12.944-26.706-32-32.269v-40.222c10.58,4.023 17,10.47 17,16.493 0,4.143 3.358,7.5 7.5,7.5s7.5-3.357 7.5-7.5c0-14.501-12.944-26.706-32-32.269v-3.731c0-4.143-3.358-7.5-7.5-7.5s-7.5,3.357-7.5,7.5v0.897c-2.766-0.261-5.603-0.397-8.5-0.397s-5.734,0.136-8.5,0.397v-0.897c0-4.143-3.358-7.5-7.5-7.5s-7.5,3.357-7.5,7.5v3.731c-19.056,5.563-32,17.768-32,32.269s12.944,26.706 32,32.269v40.246c-7.811-2.896-13.571-7.014-16.745-11.157-2.908-7.614-7.298-14.677-13.084-20.836-12.129-12.912-28.566-20.022-46.28-20.022h-4.619c3.858-54.134 49.129-97 104.228-97zm-8.5,56.474c2.711-0.308 5.55-0.474 8.5-0.474s5.789,0.166 8.5,0.474v40.923c-2.766-0.261-5.603-0.397-8.5-0.397-2.95,0-5.789-0.166-8.5-0.474v-40.052zm-15,36.519c-10.58-4.023-17-10.47-17-16.493s6.42-12.47 17-16.493v32.986zm23.5,19.007c2.95,0 5.789,0.166 8.5,0.474v40.052c-2.711,0.308-5.55,0.474-8.5,0.474-2.96,0-5.787-0.185-8.5-0.494v-40.903c2.766,0.261 5.603,0.397 8.5,0.397zm23.5,4.007c10.58,4.023 17,10.47 17,16.493s-6.42,12.47-17,16.493v-32.986zm-215.239,11.285c9.264-9.861 21.818-15.292 35.348-15.292h56.781c13.53,0 26.084,5.431 35.348,15.292 9.264,9.861 13.901,22.729 13.058,36.233l-1.411,22.573c-6.35-12.898-12.925-21.505-13.455-22.189-2.057-2.657-5.63-3.624-8.747-2.36-37.671,15.26-108.473,15.451-109.184,15.451-1.68,0-3.312,0.564-4.633,1.603-0.523,0.411-7.453,5.977-14.19,16.482l-1.972-31.559c-0.844-13.505 3.793-26.373 13.057-36.234zm-8.753,105.545c2.253-22.35 14.741-36.36 19.386-40.86 13.493-0.171 69.594-1.655 106.309-14.421 6.17,9.301 19.297,31.81 19.297,54.943 0,44.388-32.523,80.5-72.5,80.5-39.875,0.001-72.327-35.929-72.492-80.162zm-72.008,191.663v-31.559c0-11.018 7.424-20.737 18.054-23.637l59.204-16.147 23.589,35.383c2.586,3.879 6.73,6.367 11.37,6.827 0.516,0.051 1.031,0.076 1.543,0.076 3.136,0 6.166-0.953 8.731-2.713 1.305,3.477 3.41,6.564 6.092,9.038l-6.406,31.232h-66.177v-24.5c0-4.143-3.358-7.5-7.5-7.5s-7.5,3.357-7.5,7.5v24.5h-32.5c-4.687,0-8.5-3.813-8.5-8.5zm289-31.559v31.559c0,4.687-3.813,8.5-8.5,8.5h-32.5v-24.5c0-4.143-3.358-7.5-7.5-7.5s-7.5,3.357-7.5,7.5v24.5h-66.177l-6.406-31.23c2.682-2.474 4.787-5.561 6.092-9.038 2.565,1.76 5.595,2.713 8.731,2.713 0.512,0 1.028-0.025 1.543-0.076 4.64-0.46 8.784-2.948 11.37-6.827l23.589-35.383 59.205,16.147c10.629,2.898 18.053,12.618 18.053,23.635z"/>
  </g>
</svg>
