<svg xmlns="http://www.w3.org/2000/svg" viewBox="0 0 511 511">
  <path d="M503.5 404h-4.894l-114.49-114.49c-4.437-4.437-10.34-6.882-16.616-6.882s-12.18 2.445-16.617 6.883l-7.383 7.384-71.383-71.383c-2.61-2.61-5.732-4.525-9.135-5.665.005-.115.017-.23.017-.345V179H343.503c.092 0 .183-.01.274-.015.175-.006.35-.01.52-.03.102-.01.202-.03.302-.046.172-.026.343-.053.51-.09.093-.02.184-.047.275-.07.18-.047.36-.098.535-.158.08-.028.16-.058.242-.088.192-.073.38-.154.563-.24.043-.02.086-.035.13-.056.027-.014.053-.032.08-.046.14-.072.275-.15.41-.23.085-.05.172-.1.255-.156.108-.07.21-.147.315-.223.1-.073.202-.146.298-.223.078-.063.152-.13.227-.198.11-.097.22-.193.325-.295.06-.06.117-.124.176-.186.108-.112.216-.225.315-.344.06-.07.113-.146.17-.22.088-.114.178-.228.26-.347.065-.098.124-.2.186-.3.063-.1.128-.2.186-.303.07-.126.13-.257.194-.387.04-.084.084-.166.12-.25.063-.143.116-.29.17-.435.028-.08.06-.16.088-.242.045-.14.082-.28.12-.423.024-.097.052-.193.074-.29.027-.123.046-.248.067-.372.02-.125.042-.25.056-.375.012-.102.018-.206.026-.31.01-.152.02-.303.023-.456 0-.033.005-.065.005-.098 0-.062-.008-.12-.01-.18-.003-.158-.01-.314-.023-.47-.01-.103-.022-.204-.034-.304-.018-.14-.038-.278-.064-.416-.023-.12-.05-.237-.077-.354-.027-.115-.056-.23-.09-.344-.04-.138-.084-.274-.13-.41-.034-.092-.066-.185-.103-.277-.06-.15-.125-.297-.194-.442-.025-.052-.043-.106-.07-.158l-14.32-28.645 14.322-28.646c.026-.052.044-.105.07-.158.068-.145.133-.292.193-.442.038-.092.07-.185.103-.278.047-.135.092-.27.132-.41.033-.113.06-.228.09-.343.027-.117.053-.235.075-.354.026-.14.046-.278.064-.417.013-.1.026-.2.034-.303.014-.157.02-.313.024-.47 0-.06.01-.12.01-.18 0-.033-.006-.065-.006-.098-.002-.153-.012-.304-.023-.456-.008-.104-.014-.207-.026-.31-.015-.126-.036-.25-.057-.375-.02-.123-.04-.248-.067-.37-.022-.098-.05-.194-.075-.29-.037-.143-.074-.285-.12-.424-.026-.082-.058-.16-.088-.242-.053-.146-.106-.292-.168-.434-.037-.085-.08-.167-.12-.25-.064-.13-.125-.262-.195-.388-.057-.104-.122-.203-.185-.304-.062-.1-.12-.2-.187-.298-.082-.12-.172-.233-.26-.348-.057-.073-.11-.148-.17-.22-.098-.118-.206-.23-.313-.344-.06-.062-.115-.126-.176-.186-.104-.102-.215-.2-.325-.295-.075-.066-.148-.134-.226-.198-.096-.08-.198-.15-.298-.224-.104-.076-.207-.152-.315-.223-.082-.054-.17-.104-.255-.156-.134-.08-.27-.158-.408-.23-.028-.015-.054-.032-.082-.046-.052-.025-.105-.043-.157-.068-.146-.07-.292-.135-.443-.194-.09-.036-.183-.068-.274-.1-.136-.048-.273-.093-.413-.133-.112-.032-.224-.06-.336-.086-.12-.03-.24-.057-.364-.08-.134-.024-.268-.043-.402-.06-.106-.014-.212-.027-.32-.036-.15-.013-.3-.02-.45-.023-.064 0-.127-.01-.193-.01H263v-.5c0-4.14-3.358-7.5-7.5-7.5s-7.5 3.36-7.5 7.5v120c0 .117.012.23.017.346-3.403 1.14-6.523 3.054-9.135 5.666L191.5 272.894l-7.383-7.383c-4.438-4.437-10.34-6.882-16.617-6.882s-12.18 2.445-16.617 6.883L12.393 404H7.5c-4.142 0-7.5 3.358-7.5 7.5s3.358 7.5 7.5 7.5h496c4.142 0 7.5-3.358 7.5-7.5s-3.358-7.5-7.5-7.5zm-52.894 0l-56.5-56.5 13.393-13.393L477.392 404h-26.787zm-128 0l-96.5-96.5 9.726-9.726c6.434-6.434 16.9-6.434 23.335 0l6.06 6.06c12.28 12.28 32.265 12.28 44.547 0l9.726-9.727L429.393 404H322.606zm38.883-103.883c1.604-1.605 3.74-2.49 6.01-2.49s4.405.884 6.01 2.49l23.383 23.383-13.393 13.394-29.394-29.394 7.383-7.383zM331.364 115l-10.573 21.146c-.023.046-.04.094-.062.14-.06.126-.114.253-.167.38-.045.11-.088.22-.127.328-.04.113-.076.227-.11.34-.038.126-.075.25-.106.377-.026.105-.047.21-.068.316-.027.134-.053.268-.073.402-.017.107-.027.214-.037.322-.013.13-.026.262-.032.393-.005.12-.004.237-.004.357s0 .238.005.357c.007.13.02.262.033.393.01.107.02.215.036.322.018.134.045.268.072.402.02.106.042.21.068.315.03.125.068.25.106.375.035.115.07.23.11.34.04.11.082.22.127.328.052.128.107.255.167.38.022.047.04.094.062.14L331.365 164H263v-49h68.365zM249.49 236.117c1.604-1.605 3.74-2.49 6.01-2.49s4.405.884 6.01 2.49l47.383 47.383-9.726 9.726c-6.434 6.434-16.9 6.434-23.335 0l-6.06-6.06c-12.28-12.28-32.265-12.28-44.547 0l-9.726 9.727-13.394-13.393 47.383-47.383zm-88 40c1.604-1.605 3.74-2.49 6.01-2.49s4.405.884 6.01 2.49l47.383 47.383-6.704 6.704c-3.69 3.688-9.69 3.688-13.38 0l-16.015-16.015c-9.537-9.54-25.056-9.538-34.606.014-1.788 1.787-4.164 2.77-6.69 2.77s-4.902-.983-6.69-2.77l-6.703-6.704 31.382-31.383zm-41.99 41.99l6.704 6.703c4.62 4.62 10.762 7.165 17.296 7.165s12.676-2.544 17.31-7.18c3.69-3.687 9.69-3.687 13.38 0l16.015 16.016c4.77 4.77 11.032 7.154 17.296 7.154s12.528-2.384 17.297-7.153l6.704-6.703L301.394 404H33.606l85.894-85.894z"/>
</svg>
